# xmcd
#
# Track frame offsets:
# 150
# 18102
# 35270
# 50696
# 65764
# 79868
# 96954
# 120029
# 137111
# 149062
# 170658
# 185204
#
# Disc length: 2685 seconds
#
# Revision: 0
# Processed by: cddbd v1.5.2PL0 Copyright (c) Steve Scherf et al.
# Submitted via: Axialis_AX_CDPlayer 2.6
#
DISCID=ac0a7b0c
DTITLE=Hunter Hayes - Hunter Hayes
DYEAR=1900
DGENRE=
TTITLE0=Storm Warning
TTITLE1=Wanted
TTITLE2=If You Told Me To
TTITLE3=Love Makes Me
TTITLE4=Faith to Fall Back On
TTITLE5=Somebody's Heartbreak
TTITLE6=Rainy Season
TTITLE7=Cry With You
TTITLE8=Everbody's Got Somebody But Me
TTITLE9=What You Gonna Do
TTITLE10=More Than I Should
TTITLE11=All You Ever
EXTD=
EXTT0=
EXTT1=
EXTT2=
EXTT3=
EXTT4=
EXTT5=
EXTT6=
EXTT7=
EXTT8=
EXTT9=
EXTT10=
EXTT11=
PLAYORDER=
